<?xml version="1.0" encoding="UTF-8" standalone="no"?>
<svg
   xmlns:dc="http://purl.org/dc/elements/1.1/"
   xmlns:cc="http://creativecommons.org/ns#"
   xmlns:rdf="http://www.w3.org/1999/02/22-rdf-syntax-ns#"
   xmlns:svg="http://www.w3.org/2000/svg"
   xmlns="http://www.w3.org/2000/svg"
   xmlns:sodipodi="http://sodipodi.sourceforge.net/DTD/sodipodi-0.dtd"
   xmlns:inkscape="http://www.inkscape.org/namespaces/inkscape"
   viewBox="0 0 742.35499 486.77153"
   version="1.1"
   id="svg142"
   sodipodi:docname="logo.svg"
   width="742.35498"
   height="486.77155"
   inkscape:version="0.92.4 5da689c313, 2019-01-14">
  <metadata
     id="metadata146">
    <rdf:RDF>
      <cc:Work
         rdf:about="">
        <dc:format>image/svg+xml</dc:format>
        <dc:type
           rdf:resource="http://purl.org/dc/dcmitype/StillImage" />
        <dc:title>intro</dc:title>
      </cc:Work>
    </rdf:RDF>
  </metadata>
  <sodipodi:namedview
     pagecolor="#ffffff"
     bordercolor="#666666"
     borderopacity="1"
     objecttolerance="10"
     gridtolerance="10"
     guidetolerance="10"
     inkscape:pageopacity="0"
     inkscape:pageshadow="2"
     inkscape:window-width="1349"
     inkscape:window-height="994"
     id="namedview144"
     showgrid="false"
     fit-margin-top="0"
     fit-margin-left="0"
     fit-margin-right="0"
     fit-margin-bottom="0"
     inkscape:zoom="0.36073774"
     inkscape:cx="377.51619"
     inkscape:cy="249.83599"
     inkscape:window-x="0"
     inkscape:window-y="27"
     inkscape:window-maximized="0"
     inkscape:current-layer="svg142" />
  <defs
     id="defs4">
    <style
       id="style2">
      .cls-1 {
        fill: blue;
      }

      .cls-2 {
        fill: #ffefef;
      }
    </style>
  </defs>
  <title
     id="title6">intro</title>
  <g
     id="Livello_3"
     data-name="Livello 3"
     transform="translate(-85.424,-58.64344)">
    <path
       class="cls-1"
       d="M 47.521,324.773 -0.417,276.836 42.646,253.9 l 61.125,-9.875 47.9,47.9 c 0,0 -31.983,21.475 -34.817,21.475 -2.834,0 -69.333,11.373 -69.333,11.373 z"
       transform="translate(85.841,58.805)"
       id="path8"
       inkscape:connector-curvature="0"
       style="fill:#0000ff" />
    <polyline
       class="cls-1"
       points="87.862 179.703 122.529 214.37 121.196 173.536"
       id="polyline10"
       style="fill:#0000ff" />
    <path
       class="cls-1"
       d="m 148.354,276.9 48.083,48.083 69.271,-33.183 -41.38,-41.38 0.359,-72.859 47.833,-27 c 0,0 3.833,-35.667 3.333,-35.833 -0.5,-0.166 -49,-11 -49,-11 l -52.833,33.333 z"
       transform="translate(85.841,58.805)"
       id="path12"
       inkscape:connector-curvature="0"
       style="fill:#0000ff" />
    <path
       class="cls-1"
       d="m 97.854,254.565 8.167,-50.333 25,-36.833 28.167,-17.167 c 0,0 -5.167,-41.667 -6,-41.833 -0.833,-0.166 -64.167,6.333 -64.167,6.333 0,0 -25,25.5 -25.667,26.333 -0.667,0.833 -3.333,121.667 -3.333,121.667 z"
       transform="translate(85.841,58.805)"
       id="path14"
       inkscape:connector-curvature="0"
       style="fill:#0000ff" />
    <polygon
       class="cls-1"
       points="372.643,207.703 372.112,156.953 420.05,204.891 424.862,278.453 418.737,302.828 466.487,350.578 436.612,369.203 396.529,383.578 348.758,335.807 "
       id="polygon16"
       style="fill:#0000ff" />
    <polygon
       class="cls-1"
       points="464.529,191.036 525.862,191.036 539.487,150.891 587.237,198.641 583.425,217.516 565.987,243.953 478.55,250.766 430.768,202.984 "
       id="polygon18"
       style="fill:#0000ff" />
    <polygon
       class="cls-1"
       points="457.362,75.703 498.862,68.953 525.737,72.203 574.612,121.078 551.112,196.203 451.862,188.703 456.362,175.328 473.27,154.67 434.864,116.264 "
       id="polygon20"
       style="fill:#0000ff" />
    <polygon
       class="cls-1"
       points="603.362,301.995 606.696,104.203 631.362,76.203 691.612,101.703 679.612,129.703 662.362,146.953 715.737,200.328 664.862,211.953 670.362,250.766 665.904,302.786 713.591,350.474 651.696,368.37 613.112,383.62 565.404,335.911 "
       id="polygon22"
       style="fill:#0000ff" />
    <polygon
       class="cls-1"
       points="728.529,144.87 694.029,122.203 679.05,72.516 725.581,119.047 "
       id="polygon24"
       style="fill:#0000ff" />
    <polygon
       class="cls-1"
       points="714.196,132.578 665.362,96.87 663.362,174.953 716.8,165.141 "
       id="polygon26"
       style="fill:#0000ff" />
    <polygon
       class="cls-1"
       points="780.029,146.87 827.696,194.536 789.029,219.37 780.029,300.203 827.779,347.953 769.029,377.036 716.279,324.286 715.737,234.703 731.529,153.203 744.987,83.828 792.862,131.703 "
       id="polygon28"
       style="fill:#0000ff" />
    <polygon
       class="cls-1"
       points="715.737,176.328 683.362,179.828 712.862,209.328 "
       id="polygon30"
       style="fill:#0000ff" />
  </g>
  <g
     id="Livello_2"
     data-name="Livello 2"
     transform="translate(-85.424,-58.64344)">
    <g
       id="g41">
      <path
         class="cls-1"
         d="M 81.388,291.776 V 168.73 H 49.943 V 135.722 H 118.5 v 23.828 q 33.536,-26.756 65.7,-26.758 32.364,0 44.647,29.492 36.914,-29.489 68.75,-29.492 18.356,0 30.176,8.105 11.82,8.105 15.918,20.508 4.1,12.406 4.1,36.621 v 93.75 H 380.8 v 33.008 H 310.685 V 204.667 q 0,-16.406 -1.465,-23.145 A 18.4,18.4 0 0 0 301.8,170.39 23.519,23.519 0 0 0 287.443,166 q -23.832,0 -54.1,24.414 v 101.362 h 32.422 v 33.008 H 196.232 V 201.151 q 0,-18.553 -5.359,-26.855 -5.359,-8.302 -18.216,-8.296 -21.039,0 -54.16,24.414 v 101.362 h 33.2 v 33.008 H 47.6 v -33.008 z"
         transform="translate(85.841,58.805)"
         id="path33"
         inkscape:connector-curvature="0"
         style="fill:#0000ff" />
      <path
         class="cls-1"
         d="m 501.505,139.823 -1.562,52.148 H 392.716 q 0,-22.819 12.109,-39.3 12.109,-16.481 44.922,-37.158 14.653,-9.16 18.553,-14.713 a 21.037,21.037 0 0 0 3.906,-12.381 q 0,-20.664 -24.414,-20.664 -13.673,0 -19.434,6.738 -5.761,6.738 -5.758,22.362 0,3.713 0.391,8.4 h -26.173 v -7.033 q 0,-49.411 51.758,-49.414 23.629,0 37.4,10.922 13.771,10.922 13.77,27.893 a 33.015,33.015 0 0 1 -8.691,23.013 q -8.692,9.558 -33.5,24.771 -33.009,20.078 -36.523,35.861 H 476.7 v -31.445 z"
         transform="translate(85.841,58.805)"
         id="path35"
         inkscape:connector-curvature="0"
         style="fill:#0000ff" />
      <path
         class="cls-1"
         d="M 554.826,291.776 V 168.534 h -27.54 v -32.812 h 27.539 v -27.283 q 0,-34.493 14.648,-47.647 a 50.043,50.043 0 0 1 34.57,-13.156 q 42.965,0 49.8,43.555 l -33.008,5.078 Q 618.887,78.1 606.583,78.1 q -8.4,0 -11.523,5.743 -3.123,5.743 -3.125,24.622 v 27.252 h 32.422 v 32.813 h -32.422 v 123.246 h 35.938 v 33.008 H 527.286 v -33.008 z"
         transform="translate(85.841,58.805)"
         id="path37"
         inkscape:connector-curvature="0"
         style="fill:#0000ff" />
      <path
         class="cls-1"
         d="m 645.255,168.73 v -33.008 h 24.609 v -29.1 l 37.109,-33.984 v 63.086 h 34.961 v 33.006 h -34.96 v 91.8 q 0,22.074 2.441,27.246 2.441,5.172 12.207,5.176 a 55.158,55.158 0 0 0 20.313,-3.906 v 33.789 a 84.548,84.548 0 0 1 -28.516,5.078 q -16.992,0 -27.539,-7.52 -10.547,-7.52 -13.28,-18.851 -2.738,-11.325 -2.734,-39.062 v -93.75 z"
         transform="translate(85.841,58.805)"
         id="path39"
         inkscape:connector-curvature="0"
         style="fill:#0000ff" />
    </g>
  </g>
  <g
     id="Livello_1"
     data-name="Livello 1"
     transform="translate(-85.424,-58.64344)">
    <g
       id="g52">
      <path
         class="cls-2"
         d="M 33.6,243.985 V 120.938 H 2.151 V 87.93 h 68.554 v 23.828 Q 104.242,85 136.41,85 168.774,85 181.057,114.492 217.971,85 249.807,85 q 18.356,0 30.176,8.105 11.82,8.105 15.917,20.509 4.1,12.406 4.1,36.621 v 93.75 h 33.01 v 33.008 H 262.893 V 156.876 q 0,-16.406 -1.465,-23.145 a 18.4,18.4 0 0 0 -7.422,-11.133 23.519,23.519 0 0 0 -14.355,-4.395 q -23.832,0 -54.1,24.414 v 101.368 h 32.422 v 33.008 H 148.44 V 153.36 q 0,-18.553 -5.359,-26.855 -5.359,-8.302 -18.216,-8.3 -21.039,0 -54.16,24.414 v 101.366 h 33.2 v 33.008 H -0.193 v -33.008 z"
         transform="translate(85.841,58.805)"
         id="path44"
         inkscape:connector-curvature="0"
         style="fill:#ffefef" />
      <path
         class="cls-2"
         d="m 453.713,92.032 -1.562,52.148 H 344.924 q 0,-22.819 12.109,-39.3 12.109,-16.481 44.922,-37.158 14.648,-9.16 18.555,-14.715 a 21.037,21.037 0 0 0 3.906,-12.381 q 0,-20.664 -24.414,-20.664 -13.673,0 -19.434,6.738 -5.761,6.738 -5.762,22.363 0,3.713 0.391,8.4 H 349.026 V 50.43 q 0,-49.411 51.758,-49.414 23.629,0 37.4,10.922 13.771,10.922 13.77,27.893 a 33.015,33.015 0 0 1 -8.691,23.013 q -8.692,9.558 -33.5,24.771 -33.009,20.078 -36.523,35.861 h 55.664 V 92.032 Z"
         transform="translate(85.841,58.805)"
         id="path46"
         inkscape:connector-curvature="0"
         style="fill:#ffefef" />
      <path
         class="cls-2"
         d="M 507.034,243.985 V 120.743 h -27.54 V 87.93 h 27.539 V 60.648 q 0,-34.493 14.648,-47.647 a 50.043,50.043 0 0 1 34.571,-13.157 q 42.965,0 49.8,43.555 l -33.008,5.078 Q 571.1,30.313 558.791,30.313 q -8.4,0 -11.523,5.743 -3.123,5.743 -3.125,24.622 V 87.93 h 32.422 v 32.812 h -32.422 v 123.243 h 35.937 v 33.008 H 479.494 v -33.008 z"
         transform="translate(85.841,58.805)"
         id="path48"
         inkscape:connector-curvature="0"
         style="fill:#ffefef" />
      <path
         class="cls-2"
         d="M 597.463,120.938 V 87.93 h 24.609 V 58.83 L 659.181,24.846 V 87.93 h 34.961 v 33.008 h -34.96 v 91.8 q 0,22.074 2.441,27.246 2.441,5.172 12.207,5.176 a 55.158,55.158 0 0 0 20.313,-3.906 v 33.786 a 84.548,84.548 0 0 1 -28.516,5.078 q -16.992,0 -27.539,-7.52 -10.547,-7.52 -13.281,-18.848 -2.738,-11.325 -2.734,-39.062 v -93.75 z"
         transform="translate(85.841,58.805)"
         id="path50"
         inkscape:connector-curvature="0"
         style="fill:#ffefef" />
    </g>
  </g>
  <g
     id="Livello_5"
     data-name="Livello 5"
     transform="translate(-85.424,-58.64344)">
    <g
       id="g75">
      <path
         class="cls-1"
         d="m 128.836,471.507 v 12.955 h -25.451 v -9.046 q -10.579,10.273 -23.611,10.272 a 25.737,25.737 0 0 1 -17.593,-6.588 22.654,22.654 0 0 1 0.46,-34.037 28.342,28.342 0 0 1 19.126,-6.822 36.689,36.689 0 0 1 20.162,6.285 v -7.359 a 27.663,27.663 0 0 0 -1.073,-8.738 q -1.074,-3.066 -5.021,-5.52 -3.947,-2.454 -10.311,-2.453 -10.964,0 -15.869,8.738 L 55.7,425.51 q 9.275,-17.323 32.044,-17.324 a 41.576,41.576 0 0 1 14.451,2.261 q 6.094,2.263 9.084,5.826 a 19.135,19.135 0 0 1 4.024,7.7 q 1.036,4.14 1.035,13.186 v 34.345 z M 101.928,456.864 Q 92.5,449.5 82.84,449.5 a 14.889,14.889 0 0 0 -10.119,3.526 11.518,11.518 0 0 0 -4.063,9.122 11.8,11.8 0 0 0 3.564,8.74 q 3.565,3.526 9.7,3.525 10.579,0 20.008,-8.893 z"
         transform="translate(85.841,58.805)"
         id="path55"
         inkscape:connector-curvature="0"
         style="fill:#0000ff" />
      <path
         class="cls-1"
         d="m 149.228,471.507 v -48.3 h -14.949 v -12.952 h 26.6 v 16.712 a 29.42,29.42 0 0 1 6.823,-10.809 21.7,21.7 0 0 1 9.238,-5.674 50.76,50.76 0 0 1 13.3,-1.379 h 3.833 v 14.719 h -2.913 q -11.116,0 -16.6,2.223 a 14.91,14.91 0 0 0 -8.126,8.088 q -2.644,5.864 -2.645,21.043 v 16.329 h 16.175 v 12.955 h -45.685 v -12.955 z"
         transform="translate(85.841,58.805)"
         id="path57"
         inkscape:connector-curvature="0"
         style="fill:#0000ff" />
      <path
         class="cls-1"
         d="m 265.9,410.255 v 28.058 h -13.028 q -1,-8.049 -6.555,-12.342 a 20.532,20.532 0 0 0 -12.917,-4.293 20.282,20.282 0 0 0 -15.945,6.938 q -6.134,6.938 -6.133,18.207 a 30.646,30.646 0 0 0 5.826,18.513 q 5.825,8.011 16.865,8.012 15.332,0 22.231,-14.566 l 12.036,5.674 q -9.966,22.154 -34.88,22.154 -17.633,0 -27.751,-12.035 A 41.862,41.862 0 0 1 195.53,446.824 q 0,-16.79 11.039,-27.713 11.039,-10.923 25.451,-10.924 12.342,0 20.852,7.282 v -5.213 z"
         transform="translate(85.841,58.805)"
         id="path59"
         inkscape:connector-curvature="0"
         style="fill:#0000ff" />
      <path
         class="cls-1"
         d="m 288.443,471.507 v -80.724 h -13.416 v -12.955 h 27.981 v 40.936 q 13.109,-10.579 24.915,-10.578 7.359,0 12.112,3.066 a 15.415,15.415 0 0 1 6.478,8.087 q 1.726,5.023 1.725,14.681 v 37.487 h 12.649 v 12.955 h -27.215 v -45.383 a 74.72,74.72 0 0 0 -0.537,-11.269 7.479,7.479 0 0 0 -2.951,-4.677 9.156,9.156 0 0 0 -5.711,-1.84 q -8.434,0 -21.465,9.583 v 40.63 h 12.879 v 12.955 h -40.86 v -12.954 z"
         transform="translate(85.841,58.805)"
         id="path61"
         inkscape:connector-curvature="0"
         style="fill:#0000ff" />
      <path
         class="cls-1"
         d="m 378.442,471.507 v -48.3 h -11.5 v -12.952 h 26.064 v 61.252 h 11.5 v 12.955 h -37.563 v -12.955 z m -2.07,-86.473 a 8.586,8.586 0 0 1 2.491,-6.133 8.374,8.374 0 0 1 6.325,-2.606 8.608,8.608 0 0 1 6.209,2.53 8.319,8.319 0 0 1 2.603,6.209 8.442,8.442 0 0 1 -2.606,6.248 8.539,8.539 0 0 1 -6.209,2.568 8.439,8.439 0 0 1 -6.248,-2.606 8.536,8.536 0 0 1 -2.565,-6.21 z"
         transform="translate(85.841,58.805)"
         id="path63"
         inkscape:connector-curvature="0"
         style="fill:#0000ff" />
      <path
         class="cls-1"
         d="m 412.4,423.211 v -12.956 h 9.66 v -11.422 l 14.564,-13.339 v 24.761 h 13.723 v 12.956 h -13.721 v 36.03 q 0,8.663 0.959,10.693 0.959,2.03 4.791,2.031 a 21.635,21.635 0 0 0 7.973,-1.533 V 483.7 a 33.189,33.189 0 0 1 -11.192,1.993 q -6.669,0 -10.81,-2.951 a 12.569,12.569 0 0 1 -5.213,-7.4 q -1.074,-4.444 -1.072,-15.332 v -36.8 z"
         transform="translate(85.841,58.805)"
         id="path65"
         inkscape:connector-curvature="0"
         style="fill:#0000ff" />
      <path
         class="cls-1"
         d="m 539.2,451.038 h -62.4 q 1.38,10.273 8.126,16.635 6.746,6.362 17.249,6.363 15.253,0 24.147,-12.266 l 12.879,5.673 a 38.808,38.808 0 0 1 -16.329,14.45 48.85,48.85 0 0 1 -21,4.715 q -17.019,0 -29.093,-10.617 -12.074,-10.617 -12.079,-28.633 0,-17.093 11.768,-28.134 11.768,-11.041 27.022,-11.039 14.949,0 27.1,10.771 12.151,10.771 12.61,32.082 z m -15.025,-10.579 a 26.535,26.535 0 0 0 -8.126,-14.144 22.479,22.479 0 0 0 -16.176,-6.325 21.3,21.3 0 0 0 -14.948,5.712 24.376,24.376 0 0 0 -7.589,14.757 z"
         transform="translate(85.841,58.805)"
         id="path67"
         inkscape:connector-curvature="0"
         style="fill:#0000ff" />
      <path
         class="cls-1"
         d="m 620.918,410.255 v 28.058 h -13.032 q -1,-8.049 -6.555,-12.342 a 20.533,20.533 0 0 0 -12.917,-4.293 20.282,20.282 0 0 0 -15.945,6.938 q -6.133,6.938 -6.133,18.207 a 30.643,30.643 0 0 0 5.826,18.513 q 5.826,8.011 16.865,8.012 15.331,0 22.231,-14.566 l 12.035,5.674 q -9.965,22.154 -34.88,22.154 -17.632,0 -27.751,-12.035 a 41.862,41.862 0 0 1 -10.119,-27.751 q 0,-16.79 11.039,-27.713 11.039,-10.923 25.451,-10.924 12.341,0 20.852,7.282 v -5.213 z"
         transform="translate(85.841,58.805)"
         id="path69"
         inkscape:connector-curvature="0"
         style="fill:#0000ff" />
      <path
         class="cls-1"
         d="m 631.574,423.211 v -12.956 h 9.659 V 398.833 L 655.8,385.494 v 24.761 h 13.72 v 12.956 H 655.8 v 36.03 q 0,8.663 0.958,10.693 0.958,2.03 4.791,2.031 a 21.635,21.635 0 0 0 7.973,-1.533 V 483.7 a 33.184,33.184 0 0 1 -11.191,1.993 q -6.671,0 -10.81,-2.951 a 12.565,12.565 0 0 1 -5.213,-7.4 q -1.074,-4.444 -1.073,-15.332 v -36.8 z"
         transform="translate(85.841,58.805)"
         id="path71"
         inkscape:connector-curvature="0"
         style="fill:#0000ff" />
      <path
         class="cls-1"
         d="m 680.636,484.462 v -25.451 h 13.032 v 2.453 a 12.1,12.1 0 0 0 5.635,8.586 20.233,20.233 0 0 0 11.69,3.373 q 7.052,0 11.27,-2.453 4.218,-2.453 4.216,-6.822 a 6.658,6.658 0 0 0 -3.488,-6.21 q -3.489,-1.992 -13.839,-3.669 -15.335,-2.588 -21.887,-8.381 a 19.085,19.085 0 0 1 -6.553,-15 19.83,19.83 0 0 1 7.13,-15.533 q 7.129,-6.252 18.782,-6.252 10.5,0 18.092,4.324 v -3.175 h 12.955 v 24.608 h -12.955 v -4.52 q -5.9,-9.123 -17.172,-9.123 a 16.673,16.673 0 0 0 -9.468,2.492 7.637,7.637 0 0 0 -3.718,6.631 q 0,4.216 3.411,5.788 3.411,1.572 14.682,3.326 10.809,1.68 16.328,3.942 a 20.453,20.453 0 0 1 9.16,7.515 20.938,20.938 0 0 1 3.642,12.23 19.664,19.664 0 0 1 -7.935,16.45 q -7.935,6.1 -20.583,6.1 -11.884,0 -19.4,-5.4 v 4.171 z"
         transform="translate(85.841,58.805)"
         id="path73"
         inkscape:connector-curvature="0"
         style="fill:#0000ff" />
    </g>
  </g>
  <g
     id="Livello_7"
     data-name="Livello 7"
     transform="translate(-85.424,-58.64344)">
    <polygon
       class="cls-1"
       points="197.112,530.536 169.862,538.203 146.029,535.703 103.112,492.786 101.529,474.203 111.029,455.87 111.862,454.536 94.612,437.286 108.529,429.37 146.029,424.37 197.112,475.453 "
       id="polygon78"
       style="fill:#0000ff" />
    <polygon
       class="cls-1"
       points="200.987,516.328 201.279,516.953 214.675,530.349 189.237,543.286 177.258,531.307 "
       id="polygon80"
       style="fill:#0000ff" />
    <polygon
       class="cls-1"
       points="265.737,530.453 218.175,482.891 172.862,495.828 220.237,543.203 "
       id="polygon82"
       style="fill:#0000ff" />
    <path
       class="cls-1"
       d="m 146.4,361.648 47.5,47.5 L 162.4,425.4 152.15,452.525 120.9,439.9 c 0,0 -9.625,-20.5 -9.625,-20.875 0,-0.375 2,-56.25 2,-56.25 l 9.5,9.5 z"
       transform="translate(85.841,58.805)"
       id="path84"
       inkscape:connector-curvature="0"
       style="fill:#0000ff" />
    <polygon
       class="cls-1"
       points="190.987,432.453 172.862,434.453 189.8,451.391 "
       id="polygon86"
       style="fill:#0000ff" />
    <path
       class="cls-1"
       d="m 218.438,362.9 47.292,47.292 -12.792,27.958 -18.417,-18.417 -10.667,0.333 -15.833,13.124 -1.833,41.71 -43,-43 -8.5,-33.5 c 0,0 13,-25 13.167,-25.5 0.167,-0.5 24,-4.5 24,-4.5 l 16.833,6.833 z"
       transform="translate(85.841,58.805)"
       id="path88"
       inkscape:connector-curvature="0"
       style="fill:#0000ff" />
    <path
       class="cls-1"
       d="m 268.021,464.232 -47.333,-47.332 -25.5,16.292 12.667,35.042 c 0,0 23.667,14 23.75,14 0.083,0 36.416,-18.002 36.416,-18.002 z"
       transform="translate(85.841,58.805)"
       id="path90"
       inkscape:connector-curvature="0"
       style="fill:#0000ff" />
    <polygon
       class="cls-1"
       points="401.362,530.453 353.987,483.078 313.487,495.703 360.987,543.203 "
       id="polygon92"
       style="fill:#0000ff" />
    <polygon
       class="cls-1"
       points="398.987,483.078 446.425,530.516 419.612,543.203 372.05,495.641 "
       id="polygon94"
       style="fill:#0000ff" />
    <polygon
       class="cls-1"
       points="341.237,389.166 336.112,398.953 333.737,476.578 368.737,521.578 380.487,517.703 388.737,436.666 "
       id="polygon96"
       style="fill:#0000ff" />
    <polygon
       class="cls-1"
       points="329.675,400.203 313.487,402.078 329.675,418.266 "
       id="polygon98"
       style="fill:#0000ff" />
    <polygon
       class="cls-1"
       points="428.112,523.203 398.487,498.203 378.362,461.703 380.612,424.453 429.987,473.828 "
       id="polygon100"
       style="fill:#0000ff" />
    <polygon
       class="cls-1"
       points="478.612,518.536 490.237,530.161 490.237,543.203 452.862,543.203 405.529,495.87 419.279,482.12 419.279,448.036 405.617,434.375 431.196,421.703 478.612,469.12 "
       id="polygon102"
       style="fill:#0000ff" />
    <polygon
       class="cls-1"
       points="476.029,436.666 429.297,389.935 419.696,404.37 467.279,451.953 "
       id="polygon104"
       style="fill:#0000ff" />
    <polygon
       class="cls-1"
       points="519.862,478.703 536.112,469.328 520.362,453.578 522.487,444.203 474.987,396.703 467.487,425.578 467.987,482.453 464.987,492.578 513.175,540.766 536.112,529.203 519.862,512.953 "
       id="polygon106"
       style="fill:#0000ff" />
    <polygon
       class="cls-1"
       points="509.112,449.453 524.612,427.703 561.612,431.703 568.112,433.703 614.612,480.203 624.612,509.453 608.612,509.453 624.987,525.828 613.362,535.953 557.112,533.703 510.237,486.828 "
       id="polygon108"
       style="fill:#0000ff" />
    <polygon
       class="cls-1"
       points="650.112,430.203 634.612,426.828 605.862,429.953 598.987,446.203 601.612,488.453 647.3,534.141 681.112,537.203 697.487,528.453 708.987,523.203 680.237,494.453 674.987,489.203 670.487,484.703 667.425,481.641 665.987,472.953 706.737,469.078 659.112,421.453 "
       id="polygon110"
       style="fill:#0000ff" />
    <polygon
       class="cls-1"
       points="699.237,479.953 693.737,497.078 673.05,476.391 "
       id="polygon112"
       style="fill:#0000ff" />
    <polygon
       class="cls-1"
       points="755.112,529.328 739.987,514.203 739.987,479.328 755.362,469.057 740.175,453.87 741.637,444.293 694.142,396.798 681.237,427.703 669.956,434.547 684.279,473.036 685.237,493.578 732.3,540.641 "
       id="polygon114"
       style="fill:#0000ff" />
    <path
       class="cls-1"
       d="m 633.271,436.982 47.329,47.333 11.3,-5.915 15.75,2.875 24.25,-7 2.75,-27.125 -28.125,-28.125 h 2.625 l 15.75,15.75 12.75,-24.25 -47.813,-47.812 -9.312,8.063 -14,-2 c 0,0 -18.875,1 -19.375,1.375 -0.5,0.375 -6.125,12.375 -6.125,12.375 z"
       transform="translate(85.841,58.805)"
       id="path116"
       inkscape:connector-curvature="0"
       style="fill:#0000ff" />
  </g>
  <g
     id="Livello_4"
     data-name="Livello 4"
     transform="translate(-85.424,-58.64344)">
    <g
       id="g139">
      <path
         class="cls-2"
         d="m 81.336,424.007 v 12.955 H 55.885 v -9.046 q -10.579,10.273 -23.611,10.272 a 25.737,25.737 0 0 1 -17.593,-6.588 22.654,22.654 0 0 1 0.46,-34.037 28.345,28.345 0 0 1 19.126,-6.823 36.687,36.687 0 0 1 20.162,6.286 v -7.359 a 27.67,27.67 0 0 0 -1.073,-8.739 q -1.074,-3.065 -5.021,-5.52 -3.947,-2.455 -10.311,-2.453 -10.964,0 -15.869,8.739 L 8.2,378.01 q 9.275,-17.324 32.044,-17.325 a 41.576,41.576 0 0 1 14.456,2.261 q 6.094,2.262 9.084,5.826 a 19.137,19.137 0 0 1 4.024,7.7 q 1.036,4.14 1.035,13.186 v 34.344 z M 54.429,409.364 Q 45,402 35.34,402 a 14.889,14.889 0 0 0 -10.119,3.526 11.518,11.518 0 0 0 -4.063,9.122 11.8,11.8 0 0 0 3.564,8.74 q 3.565,3.526 9.7,3.525 10.579,0 20.008,-8.893 z"
         transform="translate(85.841,58.805)"
         id="path119"
         inkscape:connector-curvature="0"
         style="fill:#ffefef" />
      <path
         class="cls-2"
         d="m 101.728,424.007 v -48.3 H 86.779 v -12.952 h 26.6 v 16.712 a 29.431,29.431 0 0 1 6.823,-10.809 21.707,21.707 0 0 1 9.238,-5.673 50.754,50.754 0 0 1 13.3,-1.38 h 3.833 v 14.719 h -2.913 q -11.116,0 -16.6,2.223 a 14.911,14.911 0 0 0 -8.126,8.088 q -2.644,5.864 -2.645,21.043 v 16.329 h 16.175 v 12.955 H 86.779 v -12.955 z"
         transform="translate(85.841,58.805)"
         id="path121"
         inkscape:connector-curvature="0"
         style="fill:#ffefef" />
      <path
         class="cls-2"
         d="m 218.4,362.755 v 28.058 h -13.028 q -1,-8.049 -6.555,-12.342 a 20.535,20.535 0 0 0 -12.917,-4.293 20.283,20.283 0 0 0 -15.945,6.938 q -6.134,6.938 -6.133,18.207 a 30.646,30.646 0 0 0 5.826,18.513 q 5.825,8.011 16.865,8.012 15.332,0 22.231,-14.566 l 12.036,5.674 q -9.966,22.154 -34.88,22.154 -17.633,0 -27.751,-12.035 A 41.863,41.863 0 0 1 148.03,399.324 q 0,-16.789 11.039,-27.712 11.039,-10.923 25.451,-10.924 12.342,0 20.852,7.283 v -5.213 z"
         transform="translate(85.841,58.805)"
         id="path123"
         inkscape:connector-curvature="0"
         style="fill:#ffefef" />
      <path
         class="cls-2"
         d="m 240.943,424.007 v -80.724 h -13.416 v -12.955 h 27.981 v 40.937 q 13.109,-10.579 24.915,-10.579 7.359,0 12.112,3.066 a 15.418,15.418 0 0 1 6.478,8.087 q 1.726,5.022 1.725,14.681 v 37.487 h 12.649 v 12.955 h -27.215 v -45.383 a 74.737,74.737 0 0 0 -0.537,-11.269 7.479,7.479 0 0 0 -2.951,-4.676 9.156,9.156 0 0 0 -5.711,-1.84 q -8.434,0 -21.465,9.583 v 40.63 h 12.879 v 12.955 h -40.86 v -12.955 z"
         transform="translate(85.841,58.805)"
         id="path125"
         inkscape:connector-curvature="0"
         style="fill:#ffefef" />
      <path
         class="cls-2"
         d="m 330.942,424.007 v -48.3 h -11.5 v -12.952 h 26.064 v 61.252 h 11.5 v 12.955 h -37.563 v -12.955 z m -2.07,-86.473 a 8.586,8.586 0 0 1 2.491,-6.133 8.374,8.374 0 0 1 6.325,-2.606 8.608,8.608 0 0 1 6.209,2.53 8.32,8.32 0 0 1 2.606,6.209 8.443,8.443 0 0 1 -2.606,6.248 8.539,8.539 0 0 1 -6.209,2.568 8.439,8.439 0 0 1 -6.248,-2.606 8.536,8.536 0 0 1 -2.568,-6.21 z"
         transform="translate(85.841,58.805)"
         id="path127"
         inkscape:connector-curvature="0"
         style="fill:#ffefef" />
      <path
         class="cls-2"
         d="m 364.9,375.71 v -12.955 h 9.659 v -11.422 l 14.565,-13.339 v 24.761 h 13.722 v 12.955 h -13.719 v 36.031 q 0,8.663 0.958,10.693 0.958,2.03 4.792,2.031 a 21.635,21.635 0 0 0 7.973,-1.533 V 436.2 a 33.189,33.189 0 0 1 -11.192,1.993 q -6.669,0 -10.809,-2.951 a 12.567,12.567 0 0 1 -5.213,-7.4 q -1.074,-4.444 -1.073,-15.332 v -36.8 z"
         transform="translate(85.841,58.805)"
         id="path129"
         inkscape:connector-curvature="0"
         style="fill:#ffefef" />
      <path
         class="cls-2"
         d="m 491.7,403.538 h -62.4 q 1.38,10.273 8.126,16.635 6.746,6.362 17.249,6.363 15.253,0 24.147,-12.266 l 12.879,5.673 a 38.808,38.808 0 0 1 -16.329,14.45 48.85,48.85 0 0 1 -21,4.715 q -17.019,0 -29.093,-10.617 -12.074,-10.617 -12.079,-28.633 0,-17.094 11.768,-28.134 11.768,-11.04 27.022,-11.039 14.949,0 27.1,10.771 12.151,10.771 12.61,32.082 z m -15.025,-10.579 a 26.535,26.535 0 0 0 -8.126,-14.144 22.479,22.479 0 0 0 -16.176,-6.325 21.3,21.3 0 0 0 -14.948,5.711 24.375,24.375 0 0 0 -7.589,14.757 z"
         transform="translate(85.841,58.805)"
         id="path131"
         inkscape:connector-curvature="0"
         style="fill:#ffefef" />
      <path
         class="cls-2"
         d="m 573.418,362.755 v 28.058 h -13.032 q -1,-8.049 -6.555,-12.342 a 20.536,20.536 0 0 0 -12.917,-4.293 20.283,20.283 0 0 0 -15.945,6.938 q -6.133,6.938 -6.133,18.207 a 30.643,30.643 0 0 0 5.826,18.513 q 5.826,8.011 16.865,8.012 15.331,0 22.231,-14.566 l 12.035,5.674 q -9.965,22.154 -34.88,22.154 -17.632,0 -27.751,-12.035 a 41.863,41.863 0 0 1 -10.119,-27.751 q 0,-16.789 11.039,-27.712 11.039,-10.923 25.451,-10.924 12.341,0 20.852,7.283 v -5.213 z"
         transform="translate(85.841,58.805)"
         id="path133"
         inkscape:connector-curvature="0"
         style="fill:#ffefef" />
      <path
         class="cls-2"
         d="m 584.074,375.71 v -12.955 h 9.659 V 351.333 L 608.3,337.994 v 24.761 h 13.72 V 375.71 H 608.3 v 36.031 q 0,8.663 0.958,10.693 0.958,2.03 4.791,2.031 a 21.635,21.635 0 0 0 7.973,-1.533 V 436.2 a 33.184,33.184 0 0 1 -11.191,1.993 q -6.671,0 -10.81,-2.951 a 12.565,12.565 0 0 1 -5.213,-7.4 q -1.074,-4.444 -1.073,-15.332 v -36.8 z"
         transform="translate(85.841,58.805)"
         id="path135"
         inkscape:connector-curvature="0"
         style="fill:#ffefef" />
      <path
         class="cls-2"
         d="m 633.136,436.962 v -25.451 h 13.032 v 2.453 a 12.1,12.1 0 0 0 5.635,8.586 20.233,20.233 0 0 0 11.69,3.373 q 7.052,0 11.27,-2.453 4.218,-2.453 4.216,-6.822 a 6.658,6.658 0 0 0 -3.488,-6.21 q -3.489,-1.992 -13.839,-3.669 -15.335,-2.588 -21.887,-8.381 a 19.085,19.085 0 0 1 -6.553,-15 19.831,19.831 0 0 1 7.13,-15.533 q 7.129,-6.253 18.782,-6.252 10.5,0 18.092,4.324 v -3.174 h 12.955 v 24.608 h -12.955 v -4.521 q -5.9,-9.122 -17.172,-9.123 a 16.67,16.67 0 0 0 -9.468,2.492 7.637,7.637 0 0 0 -3.718,6.631 q 0,4.217 3.411,5.788 3.411,1.571 14.682,3.326 10.809,1.68 16.328,3.942 a 20.457,20.457 0 0 1 9.16,7.515 20.938,20.938 0 0 1 3.642,12.23 19.664,19.664 0 0 1 -7.935,16.45 q -7.935,6.1 -20.583,6.1 -11.884,0 -19.4,-5.4 v 4.171 z"
         transform="translate(85.841,58.805)"
         id="path137"
         inkscape:connector-curvature="0"
         style="fill:#ffefef" />
    </g>
  </g>
</svg>
